<mxfile host="Electron" modified="2025-08-16T22:39:51.816Z" agent="Mozilla/5.0 (Windows NT 10.0; Win64; x64) AppleWebKit/537.36 (KHTML, like Gecko) draw.io/24.1.0 Chrome/120.0.6099.109 Electron/28.1.0 Safari/537.36" etag="kg0OLK5GPjWcshnT39a5" version="24.1.0" type="device">
  <diagram name="Sheet 1" id="noxEhjXfcJPRch1m8VZ3">
    <mxGraphModel dx="1418" dy="820" grid="1" gridSize="1.9685" guides="1" tooltips="1" connect="1" arrows="1" fold="1" page="1" pageScale="1" pageWidth="827" pageHeight="1169" math="0" shadow="0">
      <root>
        <mxCell id="0" />
        <mxCell id="1" parent="0" />
        <mxCell id="JBeKq6UBt9uG4QoYx59_-4" value="" style="rounded=0;whiteSpace=wrap;html=1;fillColor=none;strokeWidth=1;" parent="1" vertex="1">
          <mxGeometry x="39.37" y="39.37" width="748.03" height="1090.63" as="geometry" />
        </mxCell>
        <mxCell id="JBeKq6UBt9uG4QoYx59_-16" value="" style="endArrow=none;html=1;rounded=0;curved=0;endSize=6;targetPerimeterSpacing=0;jumpSize=6;strokeColor=default;exitX=0.5;exitY=0.018;exitDx=0;exitDy=0;exitPerimeter=0;strokeWidth=1;" parent="1" source="JBeKq6UBt9uG4QoYx59_-4" edge="1">
          <mxGeometry width="50" height="50" relative="1" as="geometry">
            <mxPoint x="413.37" y="32.68" as="sourcePoint" />
            <mxPoint x="413.37" y="19.68" as="targetPoint" />
          </mxGeometry>
        </mxCell>
        <mxCell id="JBeKq6UBt9uG4QoYx59_-18" value="" style="endArrow=none;html=1;rounded=0;entryX=0.026;entryY=0.5;entryDx=0;entryDy=0;entryPerimeter=0;strokeWidth=1;" parent="1" target="JBeKq6UBt9uG4QoYx59_-4" edge="1">
          <mxGeometry width="50" height="50" relative="1" as="geometry">
            <mxPoint x="19.69" y="584.67" as="sourcePoint" />
            <mxPoint x="27.69" y="584.67" as="targetPoint" />
          </mxGeometry>
        </mxCell>
        <mxCell id="JBeKq6UBt9uG4QoYx59_-20" value="" style="endArrow=none;html=1;rounded=0;exitX=0.974;exitY=0.5;exitDx=0;exitDy=0;exitPerimeter=0;strokeWidth=1;" parent="1" source="JBeKq6UBt9uG4QoYx59_-4" edge="1">
          <mxGeometry width="50" height="50" relative="1" as="geometry">
            <mxPoint x="797" y="584.68" as="sourcePoint" />
            <mxPoint x="807" y="584.68" as="targetPoint" />
          </mxGeometry>
        </mxCell>
        <mxCell id="JBeKq6UBt9uG4QoYx59_-23" value="" style="endArrow=none;html=1;rounded=0;entryX=1;entryY=0.75;entryDx=0;entryDy=0;exitX=0;exitY=0.75;exitDx=0;exitDy=0;strokeWidth=1;" parent="1" edge="1">
          <mxGeometry width="50" height="50" relative="1" as="geometry">
            <mxPoint x="39.3" y="944.8825000000002" as="sourcePoint" />
            <mxPoint x="787.49" y="944.8825000000002" as="targetPoint" />
          </mxGeometry>
        </mxCell>
        <mxCell id="JBeKq6UBt9uG4QoYx59_-25" value="" style="endArrow=none;html=1;rounded=0;entryX=1;entryY=0.75;entryDx=0;entryDy=0;exitX=0;exitY=0.75;exitDx=0;exitDy=0;strokeWidth=1;" parent="1" edge="1">
          <mxGeometry width="50" height="50" relative="1" as="geometry">
            <mxPoint x="39.3" y="984.2510000000001" as="sourcePoint" />
            <mxPoint x="787.49" y="984.2510000000001" as="targetPoint" />
          </mxGeometry>
        </mxCell>
        <mxCell id="VQGSf6ayIFre-QUfzGoe-1" value="" style="endArrow=none;html=1;rounded=0;strokeWidth=1;" parent="1" edge="1">
          <mxGeometry width="50" height="50" relative="1" as="geometry">
            <mxPoint x="547.24" y="1130" as="sourcePoint" />
            <mxPoint x="547.24" y="944.9" as="targetPoint" />
          </mxGeometry>
        </mxCell>
        <mxCell id="VQGSf6ayIFre-QUfzGoe-2" value="" style="endArrow=none;html=1;rounded=0;strokeWidth=1;" parent="1" edge="1">
          <mxGeometry width="50" height="50" relative="1" as="geometry">
            <mxPoint x="307.08849999999995" y="1129.9985" as="sourcePoint" />
            <mxPoint x="307.08849999999995" y="944.9" as="targetPoint" />
          </mxGeometry>
        </mxCell>
        <mxCell id="VQGSf6ayIFre-QUfzGoe-3" value="" style="endArrow=none;html=1;rounded=0;entryX=1;entryY=0.75;entryDx=0;entryDy=0;exitX=0;exitY=0.75;exitDx=0;exitDy=0;strokeWidth=1;" parent="1" edge="1">
          <mxGeometry width="50" height="50" relative="1" as="geometry">
            <mxPoint x="307.1" y="1023.6195" as="sourcePoint" />
            <mxPoint x="787.5" y="1023.6195" as="targetPoint" />
          </mxGeometry>
        </mxCell>
        <mxCell id="VQGSf6ayIFre-QUfzGoe-4" value="" style="endArrow=none;html=1;rounded=0;entryX=1;entryY=0.75;entryDx=0;entryDy=0;exitX=0;exitY=0.75;exitDx=0;exitDy=0;strokeWidth=1;" parent="1" edge="1">
          <mxGeometry width="50" height="50" relative="1" as="geometry">
            <mxPoint x="547.2" y="1090.548" as="sourcePoint" />
            <mxPoint x="787.5" y="1090.548" as="targetPoint" />
          </mxGeometry>
        </mxCell>
        <mxCell id="VQGSf6ayIFre-QUfzGoe-5" value="" style="endArrow=none;html=1;rounded=0;strokeWidth=1;" parent="1" edge="1">
          <mxGeometry width="50" height="50" relative="1" as="geometry">
            <mxPoint x="586.6084999999999" y="1129.9985" as="sourcePoint" />
            <mxPoint x="586.6084999999999" y="1090.5" as="targetPoint" />
          </mxGeometry>
        </mxCell>
        <mxCell id="VQGSf6ayIFre-QUfzGoe-6" value="" style="endArrow=none;html=1;rounded=0;strokeWidth=1;" parent="1" edge="1">
          <mxGeometry width="50" height="50" relative="1" as="geometry">
            <mxPoint x="728.347" y="1129.9969999999998" as="sourcePoint" />
            <mxPoint x="728.347" y="1090.4985" as="targetPoint" />
          </mxGeometry>
        </mxCell>
        <mxCell id="VQGSf6ayIFre-QUfzGoe-7" value="" style="endArrow=none;html=1;rounded=0;strokeWidth=1;" parent="1" edge="1">
          <mxGeometry width="50" height="50" relative="1" as="geometry">
            <mxPoint x="173.22699999999986" y="984.3" as="sourcePoint" />
            <mxPoint x="173.22699999999986" y="944.8784999999999" as="targetPoint" />
          </mxGeometry>
        </mxCell>
        <mxCell id="VQGSf6ayIFre-QUfzGoe-9" value="&lt;font style=&quot;font-size: 10px;&quot;&gt;Currency&lt;/font&gt;" style="text;html=1;align=left;verticalAlign=middle;whiteSpace=wrap;rounded=0;fillColor=none;fontStyle=0;fontFamily=Verdana;fontSize=10;" parent="1" vertex="1">
          <mxGeometry x="41.339999999999996" y="944.88" width="25.59" height="12.29" as="geometry" />
        </mxCell>
        <mxCell id="VQGSf6ayIFre-QUfzGoe-10" value="&lt;font style=&quot;font-size: 10px;&quot;&gt;Price variation&lt;/font&gt;" style="text;html=1;align=left;verticalAlign=middle;whiteSpace=wrap;rounded=0;fontStyle=0;fontFamily=Verdana;fontSize=10;" parent="1" vertex="1">
          <mxGeometry x="175.2" y="944.88" width="78.74" height="12.29" as="geometry" />
        </mxCell>
        <mxCell id="VQGSf6ayIFre-QUfzGoe-11" value="&lt;font style=&quot;font-size: 10px;&quot;&gt;&lt;span style=&quot;font-size: 10px;&quot;&gt;Conversion rate&lt;/span&gt;&lt;/font&gt;" style="text;html=1;align=left;verticalAlign=middle;whiteSpace=wrap;rounded=0;fontStyle=0;fontFamily=Verdana;fontSize=10;" parent="1" vertex="1">
          <mxGeometry x="309.06" y="944.88" width="90.55" height="12.29" as="geometry" />
        </mxCell>
        <mxCell id="VQGSf6ayIFre-QUfzGoe-12" value="&lt;font style=&quot;font-size: 10px;&quot;&gt;Maximum weight (per unit)&lt;/font&gt;" style="text;html=1;align=left;verticalAlign=middle;whiteSpace=wrap;rounded=0;fontStyle=0;fontFamily=Verdana;fontSize=10;" parent="1" vertex="1">
          <mxGeometry x="549.22" y="944.88" width="159.44" height="12.29" as="geometry" />
        </mxCell>
        <mxCell id="VQGSf6ayIFre-QUfzGoe-13" value="&lt;font style=&quot;font-size: 10px;&quot;&gt;Created by&lt;/font&gt;" style="text;html=1;align=left;verticalAlign=middle;whiteSpace=wrap;rounded=0;fontStyle=0;fontFamily=Verdana;fontSize=10;" parent="1" vertex="1">
          <mxGeometry x="549.22" y="984.25" width="57.08" height="12.29" as="geometry" />
        </mxCell>
        <mxCell id="VQGSf6ayIFre-QUfzGoe-14" value="&lt;font style=&quot;font-size: 10px;&quot;&gt;Project title&lt;/font&gt;" style="text;html=1;align=left;verticalAlign=middle;whiteSpace=wrap;rounded=0;fontStyle=0;fontFamily=Verdana;fontSize=10;" parent="1" vertex="1">
          <mxGeometry x="309.06" y="984.25" width="66.92" height="12.29" as="geometry" />
        </mxCell>
        <mxCell id="VQGSf6ayIFre-QUfzGoe-15" value="&lt;font style=&quot;font-size: 10px;&quot;&gt;Drawing title&lt;/font&gt;" style="text;html=1;align=left;verticalAlign=middle;whiteSpace=wrap;rounded=0;fontStyle=0;fontFamily=Verdana;fontSize=10;" parent="1" vertex="1">
          <mxGeometry x="309.06" y="1023.62" width="82.67" height="12.29" as="geometry" />
        </mxCell>
        <mxCell id="VQGSf6ayIFre-QUfzGoe-16" value="&lt;font style=&quot;font-size: 10px;&quot;&gt;Drawing number&lt;/font&gt;" style="text;html=1;align=left;verticalAlign=middle;whiteSpace=wrap;rounded=0;fontStyle=0;fontFamily=Verdana;fontSize=10;" parent="1" vertex="1">
          <mxGeometry x="549.22" y="1023.62" width="94.48" height="12.29" as="geometry" />
        </mxCell>
        <mxCell id="VQGSf6ayIFre-QUfzGoe-17" value="&lt;font style=&quot;font-size: 10px;&quot;&gt;Notes&lt;/font&gt;" style="text;html=1;align=left;verticalAlign=middle;whiteSpace=wrap;rounded=0;fontStyle=0;fontFamily=Verdana;fontSize=10;" parent="1" vertex="1">
          <mxGeometry x="41.338499999999996" y="984.2484999999999" width="25.59" height="12.29" as="geometry" />
        </mxCell>
        <mxCell id="VQGSf6ayIFre-QUfzGoe-18" value="&lt;font style=&quot;font-size: 10px;&quot;&gt;Rev.&lt;/font&gt;" style="text;html=1;align=left;verticalAlign=middle;whiteSpace=wrap;rounded=0;fontStyle=0;fontFamily=Verdana;fontSize=10;" parent="1" vertex="1">
          <mxGeometry x="549.22" y="1090.55" width="41.33" height="12.29" as="geometry" />
        </mxCell>
        <mxCell id="VQGSf6ayIFre-QUfzGoe-19" value="&lt;font style=&quot;font-size: 10px;&quot;&gt;Date of issue&lt;/font&gt;" style="text;html=1;align=left;verticalAlign=middle;whiteSpace=wrap;rounded=0;fontStyle=0;fontFamily=Verdana;fontSize=10;" parent="1" vertex="1">
          <mxGeometry x="588" y="1090.55" width="71.45" height="12.29" as="geometry" />
        </mxCell>
        <mxCell id="VQGSf6ayIFre-QUfzGoe-20" value="&lt;font style=&quot;font-size: 10px;&quot;&gt;Sheet&lt;/font&gt;" style="text;html=1;align=left;verticalAlign=middle;whiteSpace=wrap;rounded=0;fontStyle=0;fontFamily=Verdana;fontSize=10;" parent="1" vertex="1">
          <mxGeometry x="729.73" y="1090.55" width="61.61" height="12.29" as="geometry" />
        </mxCell>
        <mxCell id="xuHGBV2yemARD54Rfex9-2" value="&lt;font style=&quot;font-size: 20px; font-weight: normal;&quot;&gt;RON-EUR&lt;/font&gt;" style="text;html=1;align=left;verticalAlign=middle;whiteSpace=wrap;rounded=0;fillColor=none;fontStyle=1;fontFamily=Verdana;" parent="1" vertex="1">
          <mxGeometry x="41.34" y="964.57" width="114.17" height="12.29" as="geometry" />
        </mxCell>
        <mxCell id="xuHGBV2yemARD54Rfex9-3" value="&lt;span style=&quot;font-size: 20px; font-weight: 400;&quot;&gt;±10%&lt;/span&gt;" style="text;html=1;align=left;verticalAlign=middle;whiteSpace=wrap;rounded=0;fillColor=none;fontStyle=1;fontFamily=Verdana;" parent="1" vertex="1">
          <mxGeometry x="175.2" y="964.57" width="133.85" height="12.29" as="geometry" />
        </mxCell>
        <mxCell id="xuHGBV2yemARD54Rfex9-4" value="&lt;font style=&quot;font-size: 20px; font-weight: normal;&quot;&gt;1 EUR = 5 RON&lt;/font&gt;" style="text;html=1;align=left;verticalAlign=middle;whiteSpace=wrap;rounded=0;fillColor=none;fontStyle=1;fontFamily=Verdana;" parent="1" vertex="1">
          <mxGeometry x="311.03" y="964.57" width="204.72" height="12.29" as="geometry" />
        </mxCell>
        <mxCell id="xuHGBV2yemARD54Rfex9-5" value="&lt;span style=&quot;font-size: 20px; font-weight: 400;&quot;&gt;Train Network&lt;/span&gt;" style="text;html=1;align=left;verticalAlign=middle;whiteSpace=wrap;rounded=0;fillColor=none;fontStyle=1;fontFamily=Verdana;" parent="1" vertex="1">
          <mxGeometry x="311.03" y="1003.94" width="187" height="12.29" as="geometry" />
        </mxCell>
        <mxCell id="xuHGBV2yemARD54Rfex9-6" value="&lt;font style=&quot;font-size: 20px; font-weight: normal;&quot;&gt;650&lt;/font&gt;" style="text;html=1;align=left;verticalAlign=middle;whiteSpace=wrap;rounded=0;fillColor=none;fontStyle=1;fontFamily=Verdana;" parent="1" vertex="1">
          <mxGeometry x="551.18" y="964.57" width="216.54" height="12.29" as="geometry" />
        </mxCell>
        <mxCell id="xuHGBV2yemARD54Rfex9-7" value="&lt;font style=&quot;font-size: 20px; font-weight: normal;&quot;&gt;teoelectric&lt;/font&gt;" style="text;html=1;align=left;verticalAlign=middle;whiteSpace=wrap;rounded=0;fillColor=none;fontStyle=1;fontFamily=Verdana;" parent="1" vertex="1">
          <mxGeometry x="551.17" y="1003.94" width="145.67" height="12.29" as="geometry" />
        </mxCell>
        <mxCell id="xuHGBV2yemARD54Rfex9-8" value="&lt;font style=&quot;font-size: 20px; font-weight: normal;&quot;&gt;38&lt;/font&gt;" style="text;html=1;align=center;verticalAlign=middle;whiteSpace=wrap;rounded=0;fillColor=none;fontStyle=1;fontFamily=Verdana;" parent="1" vertex="1">
          <mxGeometry x="557.0899999999999" y="1053.15" width="220.47" height="12.29" as="geometry" />
        </mxCell>
        <mxCell id="xuHGBV2yemARD54Rfex9-9" value="&lt;font style=&quot;font-size: 20px; font-weight: normal;&quot;&gt;CFR-2176 Cost&lt;/font&gt;" style="text;html=1;align=left;verticalAlign=middle;whiteSpace=wrap;rounded=0;fillColor=none;fontStyle=1;fontFamily=Verdana;" parent="1" vertex="1">
          <mxGeometry x="311.03" y="1068.9" width="192.91" height="12.29" as="geometry" />
        </mxCell>
        <mxCell id="xuHGBV2yemARD54Rfex9-14" value="&lt;font style=&quot;font-size: 20px; font-weight: normal;&quot;&gt;1/1&lt;/font&gt;" style="text;html=1;align=left;verticalAlign=middle;whiteSpace=wrap;rounded=0;fillColor=none;fontStyle=1;fontFamily=Verdana;" parent="1" vertex="1">
          <mxGeometry x="735.934" y="1106.2939999999994" width="49.21" height="12.29" as="geometry" />
        </mxCell>
        <mxCell id="v2AuxBMflL_ghMZSKkXt-2" value="&lt;font style=&quot;font-size: 20px; font-weight: normal;&quot;&gt;The final cost &lt;/font&gt;&lt;font style=&quot;font-size: 20px;&quot;&gt;DOES NOT&lt;/font&gt;" style="text;html=1;align=left;verticalAlign=middle;whiteSpace=wrap;rounded=0;fillColor=none;fontStyle=1;fontFamily=Verdana;" parent="1" vertex="1">
          <mxGeometry x="41.33" y="1003.94" width="265.76" height="12.29" as="geometry" />
        </mxCell>
        <mxCell id="v2AuxBMflL_ghMZSKkXt-3" value="&lt;font style=&quot;font-size: 20px; font-weight: normal;&quot;&gt;include the following&lt;/font&gt;" style="text;html=1;align=left;verticalAlign=middle;whiteSpace=wrap;rounded=0;fillColor=none;fontStyle=1;fontFamily=Verdana;" parent="1" vertex="1">
          <mxGeometry x="41.33" y="1027.56" width="263.79" height="12.29" as="geometry" />
        </mxCell>
        <mxCell id="v2AuxBMflL_ghMZSKkXt-4" value="&lt;font style=&quot;font-size: 20px; font-weight: normal;&quot;&gt;consumables:&lt;/font&gt;" style="text;html=1;align=left;verticalAlign=middle;whiteSpace=wrap;rounded=0;fillColor=none;fontStyle=1;fontFamily=Verdana;" parent="1" vertex="1">
          <mxGeometry x="41.34" y="1051.97" width="250" height="12.29" as="geometry" />
        </mxCell>
        <mxCell id="v2AuxBMflL_ghMZSKkXt-5" value="&lt;font style=&quot;font-size: 20px; font-weight: normal;&quot;&gt;- soldering wire&lt;/font&gt;" style="text;html=1;align=left;verticalAlign=middle;whiteSpace=wrap;rounded=0;fillColor=none;fontStyle=1;fontFamily=Verdana;" parent="1" vertex="1">
          <mxGeometry x="41.32" y="1076.77" width="259.86" height="12.29" as="geometry" />
        </mxCell>
        <mxCell id="v2AuxBMflL_ghMZSKkXt-6" value="&lt;span style=&quot;font-size: 20px; font-weight: 400;&quot;&gt;- heat shrink tubing&lt;/span&gt;" style="text;html=1;align=left;verticalAlign=middle;whiteSpace=wrap;rounded=0;fillColor=none;fontStyle=1;fontFamily=Verdana;" parent="1" vertex="1">
          <mxGeometry x="41.33" y="1102.36" width="257.88" height="12.29" as="geometry" />
        </mxCell>
        <mxCell id="UinPGv5HiVBiNIjfegbw-1" value="Assets" style="childLayout=tableLayout;recursiveResize=0;shadow=1;strokeWidth=1.5;rounded=0;glass=0;strokeColor=default;fillColor=default;aspect=fixed;fontSize=15;fontFamily=Verdana;" parent="1" vertex="1">
          <mxGeometry x="116.0015" y="94.48999999999998" width="594.6178999999995" height="198" as="geometry" />
        </mxCell>
        <mxCell id="UinPGv5HiVBiNIjfegbw-2" style="shape=tableRow;horizontal=0;startSize=0;swimlaneHead=0;swimlaneBody=0;top=0;left=0;bottom=0;right=0;dropTarget=0;collapsible=0;recursiveResize=0;expand=0;fontStyle=0;fillColor=#cdeb8b;strokeColor=default;fontSize=15;" parent="UinPGv5HiVBiNIjfegbw-1" vertex="1">
          <mxGeometry width="594.6178999999995" height="60" as="geometry" />
        </mxCell>
        <mxCell id="UinPGv5HiVBiNIjfegbw-3" value="Component&lt;div&gt;Name&lt;/div&gt;" style="connectable=0;recursiveResize=0;align=center;fontStyle=1;html=1;fillColor=#cdeb8b;strokeColor=default;fontSize=15;fontFamily=Verdana;" parent="UinPGv5HiVBiNIjfegbw-2" vertex="1">
          <mxGeometry width="116" height="60" as="geometry">
            <mxRectangle width="116" height="60" as="alternateBounds" />
          </mxGeometry>
        </mxCell>
        <mxCell id="UinPGv5HiVBiNIjfegbw-4" value="Quantity" style="connectable=0;recursiveResize=0;align=center;fontStyle=1;html=1;fillColor=#cdeb8b;strokeColor=default;fontSize=15;fontFamily=Verdana;" parent="UinPGv5HiVBiNIjfegbw-2" vertex="1">
          <mxGeometry x="116" width="83" height="60" as="geometry">
            <mxRectangle width="83" height="60" as="alternateBounds" />
          </mxGeometry>
        </mxCell>
        <mxCell id="UinPGv5HiVBiNIjfegbw-5" value="Price / Unit&lt;br style=&quot;font-size: 15px;&quot;&gt;(RON)" style="connectable=0;recursiveResize=0;align=center;fontStyle=1;html=1;fillColor=#cdeb8b;strokeColor=default;fontSize=15;fontFamily=Verdana;" parent="UinPGv5HiVBiNIjfegbw-2" vertex="1">
          <mxGeometry x="199" width="110" height="60" as="geometry">
            <mxRectangle width="110" height="60" as="alternateBounds" />
          </mxGeometry>
        </mxCell>
        <mxCell id="UinPGv5HiVBiNIjfegbw-6" value="Price / Unit&lt;br style=&quot;font-size: 15px;&quot;&gt;(EUR)" style="connectable=0;recursiveResize=0;align=center;fontStyle=1;html=1;fillColor=#cdeb8b;strokeColor=default;fontSize=15;fontFamily=Verdana;" parent="UinPGv5HiVBiNIjfegbw-2" vertex="1">
          <mxGeometry x="309" width="111" height="60" as="geometry">
            <mxRectangle width="111" height="60" as="alternateBounds" />
          </mxGeometry>
        </mxCell>
        <mxCell id="UinPGv5HiVBiNIjfegbw-7" value="Subtotal&lt;br style=&quot;font-size: 15px;&quot;&gt;(RON)" style="connectable=0;recursiveResize=0;align=center;fontStyle=1;html=1;fillColor=#cdeb8b;strokeColor=default;fontSize=15;fontFamily=Verdana;" parent="UinPGv5HiVBiNIjfegbw-2" vertex="1">
          <mxGeometry x="420" width="88" height="60" as="geometry">
            <mxRectangle width="88" height="60" as="alternateBounds" />
          </mxGeometry>
        </mxCell>
        <mxCell id="UinPGv5HiVBiNIjfegbw-8" value="Subtotal&lt;br style=&quot;font-size: 15px;&quot;&gt;(EUR)" style="connectable=0;recursiveResize=0;align=center;fontStyle=1;html=1;fillColor=#cdeb8b;strokeColor=default;fontSize=15;fontFamily=Verdana;" parent="UinPGv5HiVBiNIjfegbw-2" vertex="1">
          <mxGeometry x="508" width="87" height="60" as="geometry">
            <mxRectangle width="87" height="60" as="alternateBounds" />
          </mxGeometry>
        </mxCell>
        <mxCell id="UinPGv5HiVBiNIjfegbw-9" style="shape=tableRow;horizontal=0;startSize=0;swimlaneHead=0;swimlaneBody=0;top=0;left=0;bottom=0;right=0;dropTarget=0;collapsible=0;recursiveResize=0;expand=0;fontStyle=0;strokeColor=default;fontSize=15;" parent="UinPGv5HiVBiNIjfegbw-1" vertex="1">
          <mxGeometry y="60" width="594.6178999999995" height="46" as="geometry" />
        </mxCell>
        <mxCell id="UinPGv5HiVBiNIjfegbw-10" value="Metal Film&lt;div&gt;Resistor (1K)&lt;/div&gt;" style="connectable=0;recursiveResize=0;align=center;whiteSpace=wrap;html=1;strokeColor=default;fontSize=15;fontFamily=Verdana;" parent="UinPGv5HiVBiNIjfegbw-9" vertex="1">
          <mxGeometry width="116" height="46" as="geometry">
            <mxRectangle width="116" height="46" as="alternateBounds" />
          </mxGeometry>
        </mxCell>
        <mxCell id="UinPGv5HiVBiNIjfegbw-11" value="2" style="connectable=0;recursiveResize=0;align=center;whiteSpace=wrap;html=1;strokeColor=default;fontSize=15;fontFamily=Verdana;" parent="UinPGv5HiVBiNIjfegbw-9" vertex="1">
          <mxGeometry x="116" width="83" height="46" as="geometry">
            <mxRectangle width="83" height="46" as="alternateBounds" />
          </mxGeometry>
        </mxCell>
        <mxCell id="UinPGv5HiVBiNIjfegbw-12" value="0.025" style="connectable=0;recursiveResize=0;align=center;whiteSpace=wrap;html=1;strokeColor=default;fontSize=15;fontFamily=Verdana;" parent="UinPGv5HiVBiNIjfegbw-9" vertex="1">
          <mxGeometry x="199" width="110" height="46" as="geometry">
            <mxRectangle width="110" height="46" as="alternateBounds" />
          </mxGeometry>
        </mxCell>
        <mxCell id="UinPGv5HiVBiNIjfegbw-13" value="0.005" style="connectable=0;recursiveResize=0;align=center;whiteSpace=wrap;html=1;strokeColor=default;fontSize=15;fontFamily=Verdana;" parent="UinPGv5HiVBiNIjfegbw-9" vertex="1">
          <mxGeometry x="309" width="111" height="46" as="geometry">
            <mxRectangle width="111" height="46" as="alternateBounds" />
          </mxGeometry>
        </mxCell>
        <mxCell id="UinPGv5HiVBiNIjfegbw-14" value="0.05" style="connectable=0;recursiveResize=0;align=center;whiteSpace=wrap;html=1;strokeColor=default;fontSize=15;fontFamily=Verdana;" parent="UinPGv5HiVBiNIjfegbw-9" vertex="1">
          <mxGeometry x="420" width="88" height="46" as="geometry">
            <mxRectangle width="88" height="46" as="alternateBounds" />
          </mxGeometry>
        </mxCell>
        <mxCell id="UinPGv5HiVBiNIjfegbw-15" value="0.01" style="connectable=0;recursiveResize=0;align=center;whiteSpace=wrap;html=1;strokeColor=default;fontSize=15;fontFamily=Verdana;" parent="UinPGv5HiVBiNIjfegbw-9" vertex="1">
          <mxGeometry x="508" width="87" height="46" as="geometry">
            <mxRectangle width="87" height="46" as="alternateBounds" />
          </mxGeometry>
        </mxCell>
        <mxCell id="UinPGv5HiVBiNIjfegbw-16" style="shape=tableRow;horizontal=0;startSize=0;swimlaneHead=0;swimlaneBody=0;top=0;left=0;bottom=0;right=0;dropTarget=0;collapsible=0;recursiveResize=0;expand=0;fontStyle=0;strokeColor=default;fontSize=15;" parent="UinPGv5HiVBiNIjfegbw-1" vertex="1">
          <mxGeometry y="106" width="594.6178999999995" height="46" as="geometry" />
        </mxCell>
        <mxCell id="UinPGv5HiVBiNIjfegbw-17" value="5mm LED" style="connectable=0;recursiveResize=0;align=center;whiteSpace=wrap;html=1;strokeColor=default;fontSize=15;fontFamily=Verdana;" parent="UinPGv5HiVBiNIjfegbw-16" vertex="1">
          <mxGeometry width="116" height="46" as="geometry">
            <mxRectangle width="116" height="46" as="alternateBounds" />
          </mxGeometry>
        </mxCell>
        <mxCell id="UinPGv5HiVBiNIjfegbw-18" value="4" style="connectable=0;recursiveResize=0;align=center;whiteSpace=wrap;html=1;strokeColor=default;fontSize=15;fontFamily=Verdana;" parent="UinPGv5HiVBiNIjfegbw-16" vertex="1">
          <mxGeometry x="116" width="83" height="46" as="geometry">
            <mxRectangle width="83" height="46" as="alternateBounds" />
          </mxGeometry>
        </mxCell>
        <mxCell id="UinPGv5HiVBiNIjfegbw-19" value="0.2" style="connectable=0;recursiveResize=0;align=center;whiteSpace=wrap;html=1;strokeColor=default;fontSize=15;fontFamily=Verdana;" parent="UinPGv5HiVBiNIjfegbw-16" vertex="1">
          <mxGeometry x="199" width="110" height="46" as="geometry">
            <mxRectangle width="110" height="46" as="alternateBounds" />
          </mxGeometry>
        </mxCell>
        <mxCell id="UinPGv5HiVBiNIjfegbw-20" value="0.04" style="connectable=0;recursiveResize=0;align=center;whiteSpace=wrap;html=1;strokeColor=default;fontSize=15;fontFamily=Verdana;" parent="UinPGv5HiVBiNIjfegbw-16" vertex="1">
          <mxGeometry x="309" width="111" height="46" as="geometry">
            <mxRectangle width="111" height="46" as="alternateBounds" />
          </mxGeometry>
        </mxCell>
        <mxCell id="UinPGv5HiVBiNIjfegbw-21" value="0.8" style="connectable=0;recursiveResize=0;align=center;whiteSpace=wrap;html=1;strokeColor=default;fontSize=15;fontFamily=Verdana;" parent="UinPGv5HiVBiNIjfegbw-16" vertex="1">
          <mxGeometry x="420" width="88" height="46" as="geometry">
            <mxRectangle width="88" height="46" as="alternateBounds" />
          </mxGeometry>
        </mxCell>
        <mxCell id="UinPGv5HiVBiNIjfegbw-22" value="0.16" style="connectable=0;recursiveResize=0;align=center;whiteSpace=wrap;html=1;strokeColor=default;fontSize=15;fontFamily=Verdana;" parent="UinPGv5HiVBiNIjfegbw-16" vertex="1">
          <mxGeometry x="508" width="87" height="46" as="geometry">
            <mxRectangle width="87" height="46" as="alternateBounds" />
          </mxGeometry>
        </mxCell>
        <mxCell id="UinPGv5HiVBiNIjfegbw-23" style="shape=tableRow;horizontal=0;startSize=0;swimlaneHead=0;swimlaneBody=0;top=0;left=0;bottom=0;right=0;dropTarget=0;collapsible=0;recursiveResize=0;expand=0;fontStyle=0;strokeColor=default;fontSize=15;" parent="UinPGv5HiVBiNIjfegbw-1" vertex="1">
          <mxGeometry y="152" width="594.6178999999995" height="46" as="geometry" />
        </mxCell>
        <mxCell id="UinPGv5HiVBiNIjfegbw-24" value="5x5x3 Magnet (N52)" style="connectable=0;recursiveResize=0;align=center;whiteSpace=wrap;html=1;strokeColor=default;fontSize=15;fontFamily=Verdana;" parent="UinPGv5HiVBiNIjfegbw-23" vertex="1">
          <mxGeometry width="116" height="46" as="geometry">
            <mxRectangle width="116" height="46" as="alternateBounds" />
          </mxGeometry>
        </mxCell>
        <mxCell id="UinPGv5HiVBiNIjfegbw-25" value="4" style="connectable=0;recursiveResize=0;align=center;whiteSpace=wrap;html=1;strokeColor=default;fontSize=15;fontFamily=Verdana;" parent="UinPGv5HiVBiNIjfegbw-23" vertex="1">
          <mxGeometry x="116" width="83" height="46" as="geometry">
            <mxRectangle width="83" height="46" as="alternateBounds" />
          </mxGeometry>
        </mxCell>
        <mxCell id="UinPGv5HiVBiNIjfegbw-26" value="0.85" style="connectable=0;recursiveResize=0;align=center;whiteSpace=wrap;html=1;strokeColor=default;fontSize=15;fontFamily=Verdana;" parent="UinPGv5HiVBiNIjfegbw-23" vertex="1">
          <mxGeometry x="199" width="110" height="46" as="geometry">
            <mxRectangle width="110" height="46" as="alternateBounds" />
          </mxGeometry>
        </mxCell>
        <mxCell id="UinPGv5HiVBiNIjfegbw-27" value="0.17" style="connectable=0;recursiveResize=0;align=center;whiteSpace=wrap;html=1;strokeColor=default;fontSize=15;fontFamily=Verdana;" parent="UinPGv5HiVBiNIjfegbw-23" vertex="1">
          <mxGeometry x="309" width="111" height="46" as="geometry">
            <mxRectangle width="111" height="46" as="alternateBounds" />
          </mxGeometry>
        </mxCell>
        <mxCell id="UinPGv5HiVBiNIjfegbw-28" value="3.4" style="connectable=0;recursiveResize=0;align=center;whiteSpace=wrap;html=1;strokeColor=default;fontSize=15;fontFamily=Verdana;" parent="UinPGv5HiVBiNIjfegbw-23" vertex="1">
          <mxGeometry x="420" width="88" height="46" as="geometry">
            <mxRectangle width="88" height="46" as="alternateBounds" />
          </mxGeometry>
        </mxCell>
        <mxCell id="UinPGv5HiVBiNIjfegbw-29" value="0.68" style="connectable=0;recursiveResize=0;align=center;whiteSpace=wrap;html=1;strokeColor=default;fontSize=15;fontFamily=Verdana;" parent="UinPGv5HiVBiNIjfegbw-23" vertex="1">
          <mxGeometry x="508" width="87" height="46" as="geometry">
            <mxRectangle width="87" height="46" as="alternateBounds" />
          </mxGeometry>
        </mxCell>
        <mxCell id="a1xlqMOK6WZkkhwT4P4n-4" value="&lt;font style=&quot;font-size: 20px; font-weight: normal;&quot;&gt;A&lt;/font&gt;" style="text;html=1;align=center;verticalAlign=middle;whiteSpace=wrap;rounded=0;fillColor=none;fontStyle=1;fontFamily=Verdana;" parent="1" vertex="1">
          <mxGeometry x="559.0569999999998" y="1108.267" width="19.69" height="12.29" as="geometry" />
        </mxCell>
        <mxCell id="JV_8KLSjso-y1H0vbV_t-1" value="Assets" style="childLayout=tableLayout;recursiveResize=0;shadow=1;strokeWidth=1.5;rounded=0;glass=0;strokeColor=default;fillColor=default;fontSize=15;" parent="1" vertex="1">
          <mxGeometry x="79" y="332.6765" width="668.8860000000001" height="336" as="geometry" />
        </mxCell>
        <mxCell id="JV_8KLSjso-y1H0vbV_t-2" style="shape=tableRow;horizontal=0;startSize=0;swimlaneHead=0;swimlaneBody=0;top=0;left=0;bottom=0;right=0;dropTarget=0;collapsible=0;recursiveResize=0;expand=0;fontStyle=0;fillColor=#cdeb8b;strokeColor=default;fontSize=15;" parent="JV_8KLSjso-y1H0vbV_t-1" vertex="1">
          <mxGeometry width="668.8860000000001" height="60" as="geometry" />
        </mxCell>
        <mxCell id="JV_8KLSjso-y1H0vbV_t-3" value="Others" style="connectable=0;recursiveResize=0;align=center;fontStyle=1;html=1;fillColor=#cdeb8b;strokeColor=default;fontSize=15;fontFamily=Verdana;" parent="JV_8KLSjso-y1H0vbV_t-2" vertex="1">
          <mxGeometry width="128" height="60" as="geometry">
            <mxRectangle width="128" height="60" as="alternateBounds" />
          </mxGeometry>
        </mxCell>
        <mxCell id="JV_8KLSjso-y1H0vbV_t-4" value="Unit" style="connectable=0;recursiveResize=0;align=center;fontStyle=1;html=1;fillColor=#cdeb8b;strokeColor=default;fontSize=15;fontFamily=Verdana;" parent="JV_8KLSjso-y1H0vbV_t-2" vertex="1">
          <mxGeometry x="128" width="67" height="60" as="geometry">
            <mxRectangle width="67" height="60" as="alternateBounds" />
          </mxGeometry>
        </mxCell>
        <mxCell id="JV_8KLSjso-y1H0vbV_t-5" value="Quantity" style="connectable=0;recursiveResize=0;align=center;fontStyle=1;html=1;fillColor=#cdeb8b;strokeColor=default;fontSize=15;fontFamily=Verdana;" parent="JV_8KLSjso-y1H0vbV_t-2" vertex="1">
          <mxGeometry x="195" width="84" height="60" as="geometry">
            <mxRectangle width="84" height="60" as="alternateBounds" />
          </mxGeometry>
        </mxCell>
        <mxCell id="JV_8KLSjso-y1H0vbV_t-6" value="Price / Unit&lt;div&gt;(RON)&lt;/div&gt;" style="connectable=0;recursiveResize=0;align=center;fontStyle=1;html=1;fillColor=#cdeb8b;strokeColor=default;fontSize=15;fontFamily=Verdana;" parent="JV_8KLSjso-y1H0vbV_t-2" vertex="1">
          <mxGeometry x="279" width="110" height="60" as="geometry">
            <mxRectangle width="110" height="60" as="alternateBounds" />
          </mxGeometry>
        </mxCell>
        <mxCell id="JV_8KLSjso-y1H0vbV_t-7" value="Price / Unit&lt;br style=&quot;font-size: 15px;&quot;&gt;(EUR)" style="connectable=0;recursiveResize=0;align=center;fontStyle=1;html=1;fillColor=#cdeb8b;strokeColor=default;fontSize=15;fontFamily=Verdana;" parent="JV_8KLSjso-y1H0vbV_t-2" vertex="1">
          <mxGeometry x="389" width="111" height="60" as="geometry">
            <mxRectangle width="111" height="60" as="alternateBounds" />
          </mxGeometry>
        </mxCell>
        <mxCell id="JV_8KLSjso-y1H0vbV_t-8" value="Subtotal&lt;br style=&quot;font-size: 15px;&quot;&gt;(RON)" style="connectable=0;recursiveResize=0;align=center;fontStyle=1;html=1;fillColor=#cdeb8b;strokeColor=default;fontSize=15;fontFamily=Verdana;" parent="JV_8KLSjso-y1H0vbV_t-2" vertex="1">
          <mxGeometry x="500" width="84" height="60" as="geometry">
            <mxRectangle width="84" height="60" as="alternateBounds" />
          </mxGeometry>
        </mxCell>
        <mxCell id="JV_8KLSjso-y1H0vbV_t-9" value="Subtotal&lt;br style=&quot;font-size: 15px;&quot;&gt;(EUR)" style="connectable=0;recursiveResize=0;align=center;fontStyle=1;html=1;fillColor=#cdeb8b;strokeColor=default;fontSize=15;fontFamily=Verdana;" parent="JV_8KLSjso-y1H0vbV_t-2" vertex="1">
          <mxGeometry x="584" width="85" height="60" as="geometry">
            <mxRectangle width="85" height="60" as="alternateBounds" />
          </mxGeometry>
        </mxCell>
        <mxCell id="JV_8KLSjso-y1H0vbV_t-10" style="shape=tableRow;horizontal=0;startSize=0;swimlaneHead=0;swimlaneBody=0;top=0;left=0;bottom=0;right=0;dropTarget=0;collapsible=0;recursiveResize=0;expand=0;fontStyle=0;strokeColor=default;fontSize=15;" parent="JV_8KLSjso-y1H0vbV_t-1" vertex="1">
          <mxGeometry y="60" width="668.8860000000001" height="46" as="geometry" />
        </mxCell>
        <mxCell id="JV_8KLSjso-y1H0vbV_t-11" value="&lt;div&gt;&lt;span style=&quot;background-color: initial;&quot;&gt;B2.9x4.5/BN994&lt;/span&gt;&lt;br&gt;&lt;/div&gt;&lt;div&gt;&lt;span style=&quot;background-color: initial;&quot;&gt;Screw&lt;/span&gt;&lt;/div&gt;" style="connectable=0;recursiveResize=0;align=center;whiteSpace=wrap;html=1;strokeColor=default;fontSize=15;fontFamily=Verdana;" parent="JV_8KLSjso-y1H0vbV_t-10" vertex="1">
          <mxGeometry width="128" height="46" as="geometry">
            <mxRectangle width="128" height="46" as="alternateBounds" />
          </mxGeometry>
        </mxCell>
        <mxCell id="JV_8KLSjso-y1H0vbV_t-12" value="Piece" style="connectable=0;recursiveResize=0;align=center;whiteSpace=wrap;html=1;strokeColor=default;fontSize=15;fontFamily=Verdana;" parent="JV_8KLSjso-y1H0vbV_t-10" vertex="1">
          <mxGeometry x="128" width="67" height="46" as="geometry">
            <mxRectangle width="67" height="46" as="alternateBounds" />
          </mxGeometry>
        </mxCell>
        <mxCell id="JV_8KLSjso-y1H0vbV_t-13" value="4" style="connectable=0;recursiveResize=0;align=center;whiteSpace=wrap;html=1;strokeColor=default;fontSize=15;fontFamily=Verdana;" parent="JV_8KLSjso-y1H0vbV_t-10" vertex="1">
          <mxGeometry x="195" width="84" height="46" as="geometry">
            <mxRectangle width="84" height="46" as="alternateBounds" />
          </mxGeometry>
        </mxCell>
        <mxCell id="JV_8KLSjso-y1H0vbV_t-14" value="0.083" style="connectable=0;recursiveResize=0;align=center;whiteSpace=wrap;html=1;strokeColor=default;fontSize=15;fontFamily=Verdana;" parent="JV_8KLSjso-y1H0vbV_t-10" vertex="1">
          <mxGeometry x="279" width="110" height="46" as="geometry">
            <mxRectangle width="110" height="46" as="alternateBounds" />
          </mxGeometry>
        </mxCell>
        <mxCell id="JV_8KLSjso-y1H0vbV_t-15" value="0.016" style="connectable=0;recursiveResize=0;align=center;whiteSpace=wrap;html=1;strokeColor=default;fontSize=15;fontFamily=Verdana;" parent="JV_8KLSjso-y1H0vbV_t-10" vertex="1">
          <mxGeometry x="389" width="111" height="46" as="geometry">
            <mxRectangle width="111" height="46" as="alternateBounds" />
          </mxGeometry>
        </mxCell>
        <mxCell id="JV_8KLSjso-y1H0vbV_t-16" value="0.332" style="connectable=0;recursiveResize=0;align=center;whiteSpace=wrap;html=1;strokeColor=default;fontSize=15;fontFamily=Verdana;" parent="JV_8KLSjso-y1H0vbV_t-10" vertex="1">
          <mxGeometry x="500" width="84" height="46" as="geometry">
            <mxRectangle width="84" height="46" as="alternateBounds" />
          </mxGeometry>
        </mxCell>
        <mxCell id="JV_8KLSjso-y1H0vbV_t-17" value="0.064" style="connectable=0;recursiveResize=0;align=center;whiteSpace=wrap;html=1;strokeColor=default;fontSize=15;fontFamily=Verdana;" parent="JV_8KLSjso-y1H0vbV_t-10" vertex="1">
          <mxGeometry x="584" width="85" height="46" as="geometry">
            <mxRectangle width="85" height="46" as="alternateBounds" />
          </mxGeometry>
        </mxCell>
        <mxCell id="JV_8KLSjso-y1H0vbV_t-18" style="shape=tableRow;horizontal=0;startSize=0;swimlaneHead=0;swimlaneBody=0;top=0;left=0;bottom=0;right=0;dropTarget=0;collapsible=0;recursiveResize=0;expand=0;fontStyle=0;strokeColor=default;fontSize=15;" parent="JV_8KLSjso-y1H0vbV_t-1" vertex="1">
          <mxGeometry y="106" width="668.8860000000001" height="46" as="geometry" />
        </mxCell>
        <mxCell id="JV_8KLSjso-y1H0vbV_t-19" value="B3.5x16/BN994&amp;nbsp;&lt;div&gt;Screw&lt;/div&gt;" style="connectable=0;recursiveResize=0;align=center;whiteSpace=wrap;html=1;strokeColor=default;fontSize=15;fontFamily=Verdana;" parent="JV_8KLSjso-y1H0vbV_t-18" vertex="1">
          <mxGeometry width="128" height="46" as="geometry">
            <mxRectangle width="128" height="46" as="alternateBounds" />
          </mxGeometry>
        </mxCell>
        <mxCell id="JV_8KLSjso-y1H0vbV_t-20" value="Piece" style="connectable=0;recursiveResize=0;align=center;whiteSpace=wrap;html=1;strokeColor=default;fontSize=15;fontFamily=Verdana;" parent="JV_8KLSjso-y1H0vbV_t-18" vertex="1">
          <mxGeometry x="128" width="67" height="46" as="geometry">
            <mxRectangle width="67" height="46" as="alternateBounds" />
          </mxGeometry>
        </mxCell>
        <mxCell id="JV_8KLSjso-y1H0vbV_t-21" value="8" style="connectable=0;recursiveResize=0;align=center;whiteSpace=wrap;html=1;strokeColor=default;fontSize=15;fontFamily=Verdana;" parent="JV_8KLSjso-y1H0vbV_t-18" vertex="1">
          <mxGeometry x="195" width="84" height="46" as="geometry">
            <mxRectangle width="84" height="46" as="alternateBounds" />
          </mxGeometry>
        </mxCell>
        <mxCell id="JV_8KLSjso-y1H0vbV_t-22" value="0.087" style="connectable=0;recursiveResize=0;align=center;whiteSpace=wrap;html=1;strokeColor=default;fontSize=15;fontFamily=Verdana;" parent="JV_8KLSjso-y1H0vbV_t-18" vertex="1">
          <mxGeometry x="279" width="110" height="46" as="geometry">
            <mxRectangle width="110" height="46" as="alternateBounds" />
          </mxGeometry>
        </mxCell>
        <mxCell id="JV_8KLSjso-y1H0vbV_t-23" value="0.017" style="connectable=0;recursiveResize=0;align=center;whiteSpace=wrap;html=1;strokeColor=default;fontSize=15;fontFamily=Verdana;" parent="JV_8KLSjso-y1H0vbV_t-18" vertex="1">
          <mxGeometry x="389" width="111" height="46" as="geometry">
            <mxRectangle width="111" height="46" as="alternateBounds" />
          </mxGeometry>
        </mxCell>
        <mxCell id="JV_8KLSjso-y1H0vbV_t-24" value="0.696" style="connectable=0;recursiveResize=0;align=center;whiteSpace=wrap;html=1;strokeColor=default;fontSize=15;fontFamily=Verdana;" parent="JV_8KLSjso-y1H0vbV_t-18" vertex="1">
          <mxGeometry x="500" width="84" height="46" as="geometry">
            <mxRectangle width="84" height="46" as="alternateBounds" />
          </mxGeometry>
        </mxCell>
        <mxCell id="JV_8KLSjso-y1H0vbV_t-25" value="0.139" style="connectable=0;recursiveResize=0;align=center;whiteSpace=wrap;html=1;strokeColor=default;fontSize=15;fontFamily=Verdana;" parent="JV_8KLSjso-y1H0vbV_t-18" vertex="1">
          <mxGeometry x="584" width="85" height="46" as="geometry">
            <mxRectangle width="85" height="46" as="alternateBounds" />
          </mxGeometry>
        </mxCell>
        <mxCell id="JV_8KLSjso-y1H0vbV_t-26" style="shape=tableRow;horizontal=0;startSize=0;swimlaneHead=0;swimlaneBody=0;top=0;left=0;bottom=0;right=0;dropTarget=0;collapsible=0;recursiveResize=0;expand=0;fontStyle=0;strokeColor=default;fontSize=15;" parent="JV_8KLSjso-y1H0vbV_t-1" vertex="1">
          <mxGeometry y="152" width="668.8860000000001" height="46" as="geometry" />
        </mxCell>
        <mxCell id="JV_8KLSjso-y1H0vbV_t-27" value="&lt;div&gt;Wire (20 AWG)&lt;/div&gt;" style="connectable=0;recursiveResize=0;align=center;whiteSpace=wrap;html=1;strokeColor=default;fontSize=15;fontFamily=Verdana;" parent="JV_8KLSjso-y1H0vbV_t-26" vertex="1">
          <mxGeometry width="128" height="46" as="geometry">
            <mxRectangle width="128" height="46" as="alternateBounds" />
          </mxGeometry>
        </mxCell>
        <mxCell id="JV_8KLSjso-y1H0vbV_t-28" value="Meter" style="connectable=0;recursiveResize=0;align=center;whiteSpace=wrap;html=1;strokeColor=default;fontSize=15;fontFamily=Verdana;" parent="JV_8KLSjso-y1H0vbV_t-26" vertex="1">
          <mxGeometry x="128" width="67" height="46" as="geometry">
            <mxRectangle width="67" height="46" as="alternateBounds" />
          </mxGeometry>
        </mxCell>
        <mxCell id="JV_8KLSjso-y1H0vbV_t-29" value="1.5" style="connectable=0;recursiveResize=0;align=center;whiteSpace=wrap;html=1;strokeColor=default;fontSize=15;fontFamily=Verdana;" parent="JV_8KLSjso-y1H0vbV_t-26" vertex="1">
          <mxGeometry x="195" width="84" height="46" as="geometry">
            <mxRectangle width="84" height="46" as="alternateBounds" />
          </mxGeometry>
        </mxCell>
        <mxCell id="JV_8KLSjso-y1H0vbV_t-30" value="1.5" style="connectable=0;recursiveResize=0;align=center;whiteSpace=wrap;html=1;strokeColor=default;fontSize=15;fontFamily=Verdana;" parent="JV_8KLSjso-y1H0vbV_t-26" vertex="1">
          <mxGeometry x="279" width="110" height="46" as="geometry">
            <mxRectangle width="110" height="46" as="alternateBounds" />
          </mxGeometry>
        </mxCell>
        <mxCell id="JV_8KLSjso-y1H0vbV_t-31" value="0.3" style="connectable=0;recursiveResize=0;align=center;whiteSpace=wrap;html=1;strokeColor=default;fontSize=15;fontFamily=Verdana;" parent="JV_8KLSjso-y1H0vbV_t-26" vertex="1">
          <mxGeometry x="389" width="111" height="46" as="geometry">
            <mxRectangle width="111" height="46" as="alternateBounds" />
          </mxGeometry>
        </mxCell>
        <mxCell id="JV_8KLSjso-y1H0vbV_t-32" value="2.25" style="connectable=0;recursiveResize=0;align=center;whiteSpace=wrap;html=1;strokeColor=default;fontSize=15;fontFamily=Verdana;" parent="JV_8KLSjso-y1H0vbV_t-26" vertex="1">
          <mxGeometry x="500" width="84" height="46" as="geometry">
            <mxRectangle width="84" height="46" as="alternateBounds" />
          </mxGeometry>
        </mxCell>
        <mxCell id="JV_8KLSjso-y1H0vbV_t-33" value="0.45" style="connectable=0;recursiveResize=0;align=center;whiteSpace=wrap;html=1;strokeColor=default;fontSize=15;fontFamily=Verdana;" parent="JV_8KLSjso-y1H0vbV_t-26" vertex="1">
          <mxGeometry x="584" width="85" height="46" as="geometry">
            <mxRectangle width="85" height="46" as="alternateBounds" />
          </mxGeometry>
        </mxCell>
        <mxCell id="JV_8KLSjso-y1H0vbV_t-34" style="shape=tableRow;horizontal=0;startSize=0;swimlaneHead=0;swimlaneBody=0;top=0;left=0;bottom=0;right=0;dropTarget=0;collapsible=0;recursiveResize=0;expand=0;fontStyle=0;strokeColor=default;fontSize=15;" parent="JV_8KLSjso-y1H0vbV_t-1" vertex="1">
          <mxGeometry y="198" width="668.8860000000001" height="46" as="geometry" />
        </mxCell>
        <mxCell id="JV_8KLSjso-y1H0vbV_t-35" value="&lt;div&gt;B3.5x9.5/BN994 Screw&lt;/div&gt;" style="connectable=0;recursiveResize=0;align=center;whiteSpace=wrap;html=1;strokeColor=default;fontSize=15;fontFamily=Verdana;" parent="JV_8KLSjso-y1H0vbV_t-34" vertex="1">
          <mxGeometry width="128" height="46" as="geometry">
            <mxRectangle width="128" height="46" as="alternateBounds" />
          </mxGeometry>
        </mxCell>
        <mxCell id="JV_8KLSjso-y1H0vbV_t-36" value="Piece" style="connectable=0;recursiveResize=0;align=center;whiteSpace=wrap;html=1;strokeColor=default;fontSize=15;fontFamily=Verdana;" parent="JV_8KLSjso-y1H0vbV_t-34" vertex="1">
          <mxGeometry x="128" width="67" height="46" as="geometry">
            <mxRectangle width="67" height="46" as="alternateBounds" />
          </mxGeometry>
        </mxCell>
        <mxCell id="JV_8KLSjso-y1H0vbV_t-37" value="40" style="connectable=0;recursiveResize=0;align=center;whiteSpace=wrap;html=1;strokeColor=default;fontSize=15;fontFamily=Verdana;" parent="JV_8KLSjso-y1H0vbV_t-34" vertex="1">
          <mxGeometry x="195" width="84" height="46" as="geometry">
            <mxRectangle width="84" height="46" as="alternateBounds" />
          </mxGeometry>
        </mxCell>
        <mxCell id="JV_8KLSjso-y1H0vbV_t-38" value="0.061" style="connectable=0;recursiveResize=0;align=center;whiteSpace=wrap;html=1;strokeColor=default;fontSize=15;fontFamily=Verdana;" parent="JV_8KLSjso-y1H0vbV_t-34" vertex="1">
          <mxGeometry x="279" width="110" height="46" as="geometry">
            <mxRectangle width="110" height="46" as="alternateBounds" />
          </mxGeometry>
        </mxCell>
        <mxCell id="JV_8KLSjso-y1H0vbV_t-39" value="0.012" style="connectable=0;recursiveResize=0;align=center;whiteSpace=wrap;html=1;strokeColor=default;fontSize=15;fontFamily=Verdana;" parent="JV_8KLSjso-y1H0vbV_t-34" vertex="1">
          <mxGeometry x="389" width="111" height="46" as="geometry">
            <mxRectangle width="111" height="46" as="alternateBounds" />
          </mxGeometry>
        </mxCell>
        <mxCell id="JV_8KLSjso-y1H0vbV_t-40" value="2.44" style="connectable=0;recursiveResize=0;align=center;whiteSpace=wrap;html=1;strokeColor=default;fontSize=15;fontFamily=Verdana;" parent="JV_8KLSjso-y1H0vbV_t-34" vertex="1">
          <mxGeometry x="500" width="84" height="46" as="geometry">
            <mxRectangle width="84" height="46" as="alternateBounds" />
          </mxGeometry>
        </mxCell>
        <mxCell id="JV_8KLSjso-y1H0vbV_t-41" value="0.488" style="connectable=0;recursiveResize=0;align=center;whiteSpace=wrap;html=1;strokeColor=default;fontSize=15;fontFamily=Verdana;" parent="JV_8KLSjso-y1H0vbV_t-34" vertex="1">
          <mxGeometry x="584" width="85" height="46" as="geometry">
            <mxRectangle width="85" height="46" as="alternateBounds" />
          </mxGeometry>
        </mxCell>
        <mxCell id="JV_8KLSjso-y1H0vbV_t-50" style="shape=tableRow;horizontal=0;startSize=0;swimlaneHead=0;swimlaneBody=0;top=0;left=0;bottom=0;right=0;dropTarget=0;collapsible=0;recursiveResize=0;expand=0;fontStyle=0;strokeColor=default;fontSize=15;" parent="JV_8KLSjso-y1H0vbV_t-1" vertex="1">
          <mxGeometry y="244" width="668.8860000000001" height="46" as="geometry" />
        </mxCell>
        <mxCell id="JV_8KLSjso-y1H0vbV_t-51" value="Printing Time" style="connectable=0;recursiveResize=0;align=center;whiteSpace=wrap;html=1;strokeColor=default;fontSize=15;fontFamily=Verdana;" parent="JV_8KLSjso-y1H0vbV_t-50" vertex="1">
          <mxGeometry width="128" height="46" as="geometry">
            <mxRectangle width="128" height="46" as="alternateBounds" />
          </mxGeometry>
        </mxCell>
        <mxCell id="JV_8KLSjso-y1H0vbV_t-52" value="Hour" style="connectable=0;recursiveResize=0;align=center;whiteSpace=wrap;html=1;strokeColor=default;fontSize=15;fontFamily=Verdana;" parent="JV_8KLSjso-y1H0vbV_t-50" vertex="1">
          <mxGeometry x="128" width="67" height="46" as="geometry">
            <mxRectangle width="67" height="46" as="alternateBounds" />
          </mxGeometry>
        </mxCell>
        <mxCell id="JV_8KLSjso-y1H0vbV_t-53" value="37.5" style="connectable=0;recursiveResize=0;align=center;whiteSpace=wrap;html=1;strokeColor=default;fontSize=15;fontFamily=Verdana;" parent="JV_8KLSjso-y1H0vbV_t-50" vertex="1">
          <mxGeometry x="195" width="84" height="46" as="geometry">
            <mxRectangle width="84" height="46" as="alternateBounds" />
          </mxGeometry>
        </mxCell>
        <mxCell id="JV_8KLSjso-y1H0vbV_t-54" value="1" style="connectable=0;recursiveResize=0;align=center;whiteSpace=wrap;html=1;strokeColor=default;fontSize=15;fontFamily=Verdana;" parent="JV_8KLSjso-y1H0vbV_t-50" vertex="1">
          <mxGeometry x="279" width="110" height="46" as="geometry">
            <mxRectangle width="110" height="46" as="alternateBounds" />
          </mxGeometry>
        </mxCell>
        <mxCell id="JV_8KLSjso-y1H0vbV_t-55" value="0.2" style="connectable=0;recursiveResize=0;align=center;whiteSpace=wrap;html=1;strokeColor=default;fontSize=15;fontFamily=Verdana;" parent="JV_8KLSjso-y1H0vbV_t-50" vertex="1">
          <mxGeometry x="389" width="111" height="46" as="geometry">
            <mxRectangle width="111" height="46" as="alternateBounds" />
          </mxGeometry>
        </mxCell>
        <mxCell id="JV_8KLSjso-y1H0vbV_t-56" value="37.5" style="connectable=0;recursiveResize=0;align=center;whiteSpace=wrap;html=1;strokeColor=default;fontSize=15;fontFamily=Verdana;" parent="JV_8KLSjso-y1H0vbV_t-50" vertex="1">
          <mxGeometry x="500" width="84" height="46" as="geometry">
            <mxRectangle width="84" height="46" as="alternateBounds" />
          </mxGeometry>
        </mxCell>
        <mxCell id="JV_8KLSjso-y1H0vbV_t-57" value="7.5" style="connectable=0;recursiveResize=0;align=center;whiteSpace=wrap;html=1;strokeColor=default;fontSize=15;fontFamily=Verdana;" parent="JV_8KLSjso-y1H0vbV_t-50" vertex="1">
          <mxGeometry x="584" width="85" height="46" as="geometry">
            <mxRectangle width="85" height="46" as="alternateBounds" />
          </mxGeometry>
        </mxCell>
        <mxCell id="JV_8KLSjso-y1H0vbV_t-58" style="shape=tableRow;horizontal=0;startSize=0;swimlaneHead=0;swimlaneBody=0;top=0;left=0;bottom=0;right=0;dropTarget=0;collapsible=0;recursiveResize=0;expand=0;fontStyle=0;strokeColor=default;fontSize=15;" parent="JV_8KLSjso-y1H0vbV_t-1" vertex="1">
          <mxGeometry y="290" width="668.8860000000001" height="46" as="geometry" />
        </mxCell>
        <mxCell id="JV_8KLSjso-y1H0vbV_t-59" value="Printer Filament (PLA)" style="connectable=0;recursiveResize=0;align=center;whiteSpace=wrap;html=1;strokeColor=default;fontSize=15;fontFamily=Verdana;" parent="JV_8KLSjso-y1H0vbV_t-58" vertex="1">
          <mxGeometry width="128" height="46" as="geometry">
            <mxRectangle width="128" height="46" as="alternateBounds" />
          </mxGeometry>
        </mxCell>
        <mxCell id="JV_8KLSjso-y1H0vbV_t-60" value="Gram" style="connectable=0;recursiveResize=0;align=center;whiteSpace=wrap;html=1;strokeColor=default;fontSize=15;fontFamily=Verdana;" parent="JV_8KLSjso-y1H0vbV_t-58" vertex="1">
          <mxGeometry x="128" width="67" height="46" as="geometry">
            <mxRectangle width="67" height="46" as="alternateBounds" />
          </mxGeometry>
        </mxCell>
        <mxCell id="JV_8KLSjso-y1H0vbV_t-61" value="604" style="connectable=0;recursiveResize=0;align=center;whiteSpace=wrap;html=1;strokeColor=default;fontSize=15;fontFamily=Verdana;" parent="JV_8KLSjso-y1H0vbV_t-58" vertex="1">
          <mxGeometry x="195" width="84" height="46" as="geometry">
            <mxRectangle width="84" height="46" as="alternateBounds" />
          </mxGeometry>
        </mxCell>
        <mxCell id="JV_8KLSjso-y1H0vbV_t-62" value="0.1" style="connectable=0;recursiveResize=0;align=center;whiteSpace=wrap;html=1;strokeColor=default;fontSize=15;fontFamily=Verdana;" parent="JV_8KLSjso-y1H0vbV_t-58" vertex="1">
          <mxGeometry x="279" width="110" height="46" as="geometry">
            <mxRectangle width="110" height="46" as="alternateBounds" />
          </mxGeometry>
        </mxCell>
        <mxCell id="JV_8KLSjso-y1H0vbV_t-63" value="0.02" style="connectable=0;recursiveResize=0;align=center;whiteSpace=wrap;html=1;strokeColor=default;fontSize=15;fontFamily=Verdana;" parent="JV_8KLSjso-y1H0vbV_t-58" vertex="1">
          <mxGeometry x="389" width="111" height="46" as="geometry">
            <mxRectangle width="111" height="46" as="alternateBounds" />
          </mxGeometry>
        </mxCell>
        <mxCell id="JV_8KLSjso-y1H0vbV_t-64" value="60.4" style="connectable=0;recursiveResize=0;align=center;whiteSpace=wrap;html=1;strokeColor=default;fontSize=15;fontFamily=Verdana;" parent="JV_8KLSjso-y1H0vbV_t-58" vertex="1">
          <mxGeometry x="500" width="84" height="46" as="geometry">
            <mxRectangle width="84" height="46" as="alternateBounds" />
          </mxGeometry>
        </mxCell>
        <mxCell id="JV_8KLSjso-y1H0vbV_t-65" value="12.08" style="connectable=0;recursiveResize=0;align=center;whiteSpace=wrap;html=1;strokeColor=default;fontSize=15;fontFamily=Verdana;" parent="JV_8KLSjso-y1H0vbV_t-58" vertex="1">
          <mxGeometry x="584" width="85" height="46" as="geometry">
            <mxRectangle width="85" height="46" as="alternateBounds" />
          </mxGeometry>
        </mxCell>
        <mxCell id="cB3diPAI-XHsvrUqITlT-1" value="Assets" style="childLayout=tableLayout;recursiveResize=0;shadow=1;strokeWidth=1.5;rounded=0;glass=0;strokeColor=#000000;fillColor=default;fontSize=15;" parent="1" vertex="1">
          <mxGeometry x="162.137" y="708.66" width="502.5" height="114" as="geometry" />
        </mxCell>
        <mxCell id="cB3diPAI-XHsvrUqITlT-2" style="shape=tableRow;horizontal=0;startSize=0;swimlaneHead=0;swimlaneBody=0;top=0;left=0;bottom=0;right=0;dropTarget=0;collapsible=0;recursiveResize=0;expand=0;fontStyle=0;fillColor=#cdeb8b;strokeColor=#000000;fontSize=15;" parent="cB3diPAI-XHsvrUqITlT-1" vertex="1">
          <mxGeometry width="502.5" height="57" as="geometry" />
        </mxCell>
        <mxCell id="cB3diPAI-XHsvrUqITlT-3" value="&lt;font face=&quot;Verdana&quot;&gt;&amp;nbsp; Total Cost (RON) :&amp;nbsp; &amp;nbsp; &amp;nbsp; &amp;nbsp; &amp;nbsp; &amp;nbsp; &amp;nbsp; &amp;nbsp; &amp;nbsp; &amp;nbsp; &amp;nbsp; &amp;nbsp; &amp;nbsp; &amp;nbsp; &amp;nbsp; &amp;nbsp; &amp;nbsp; &amp;nbsp; &amp;nbsp; &amp;nbsp; &amp;nbsp; &amp;nbsp; &amp;nbsp; &amp;nbsp; &amp;nbsp; &amp;nbsp;&amp;nbsp;&lt;u&gt;107.87&lt;/u&gt;&lt;/font&gt;" style="connectable=0;recursiveResize=0;align=left;fontStyle=1;html=1;fillColor=#dae8fc;strokeColor=#000000;rowspan=1;colspan=7;fontSize=15;" parent="cB3diPAI-XHsvrUqITlT-2" vertex="1">
          <mxGeometry width="503" height="57" as="geometry">
            <mxRectangle width="99" height="57" as="alternateBounds" />
          </mxGeometry>
        </mxCell>
        <mxCell id="cB3diPAI-XHsvrUqITlT-4" value="Unit" style="connectable=0;recursiveResize=0;align=center;fontStyle=1;html=1;fillColor=#cdeb8b;strokeColor=default;" parent="cB3diPAI-XHsvrUqITlT-2" vertex="1" visible="0">
          <mxGeometry x="99" width="67" height="57" as="geometry">
            <mxRectangle width="67" height="57" as="alternateBounds" />
          </mxGeometry>
        </mxCell>
        <mxCell id="cB3diPAI-XHsvrUqITlT-5" value="Quantity" style="connectable=0;recursiveResize=0;align=center;fontStyle=1;html=1;fillColor=#cdeb8b;strokeColor=default;" parent="cB3diPAI-XHsvrUqITlT-2" vertex="1" visible="0">
          <mxGeometry x="166" width="68" height="57" as="geometry">
            <mxRectangle width="68" height="57" as="alternateBounds" />
          </mxGeometry>
        </mxCell>
        <mxCell id="cB3diPAI-XHsvrUqITlT-6" value="Price / Unit&lt;br&gt;RON" style="connectable=0;recursiveResize=0;align=center;fontStyle=1;html=1;fillColor=#cdeb8b;strokeColor=default;" parent="cB3diPAI-XHsvrUqITlT-2" vertex="1" visible="0">
          <mxGeometry x="234" width="82" height="57" as="geometry">
            <mxRectangle width="82" height="57" as="alternateBounds" />
          </mxGeometry>
        </mxCell>
        <mxCell id="cB3diPAI-XHsvrUqITlT-7" value="Price / Unit&lt;br&gt;EUR" style="connectable=0;recursiveResize=0;align=center;fontStyle=1;html=1;fillColor=#cdeb8b;strokeColor=default;" parent="cB3diPAI-XHsvrUqITlT-2" vertex="1" visible="0">
          <mxGeometry x="316" width="84" height="57" as="geometry">
            <mxRectangle width="84" height="57" as="alternateBounds" />
          </mxGeometry>
        </mxCell>
        <mxCell id="cB3diPAI-XHsvrUqITlT-8" value="Value&lt;br&gt;RON" style="connectable=0;recursiveResize=0;align=center;fontStyle=1;html=1;fillColor=#cdeb8b;strokeColor=default;" parent="cB3diPAI-XHsvrUqITlT-2" vertex="1" visible="0">
          <mxGeometry x="400" width="54" height="57" as="geometry">
            <mxRectangle width="54" height="57" as="alternateBounds" />
          </mxGeometry>
        </mxCell>
        <mxCell id="cB3diPAI-XHsvrUqITlT-9" value="Value&lt;br&gt;EUR" style="connectable=0;recursiveResize=0;align=center;fontStyle=1;html=1;fillColor=#cdeb8b;strokeColor=default;" parent="cB3diPAI-XHsvrUqITlT-2" vertex="1" visible="0">
          <mxGeometry x="454" width="49" height="57" as="geometry">
            <mxRectangle width="49" height="57" as="alternateBounds" />
          </mxGeometry>
        </mxCell>
        <mxCell id="cB3diPAI-XHsvrUqITlT-10" style="shape=tableRow;horizontal=0;startSize=0;swimlaneHead=0;swimlaneBody=0;top=0;left=0;bottom=0;right=0;dropTarget=0;collapsible=0;recursiveResize=0;expand=0;fontStyle=0;fillColor=#cdeb8b;strokeColor=#000000;fontSize=15;" parent="cB3diPAI-XHsvrUqITlT-1" vertex="1">
          <mxGeometry y="57" width="502.5" height="57" as="geometry" />
        </mxCell>
        <mxCell id="cB3diPAI-XHsvrUqITlT-11" value="&lt;font face=&quot;Verdana&quot;&gt;&amp;nbsp; Cost Total (EUR) :&amp;nbsp; &amp;nbsp; &amp;nbsp; &amp;nbsp; &amp;nbsp; &amp;nbsp; &amp;nbsp; &amp;nbsp; &amp;nbsp; &amp;nbsp; &amp;nbsp; &amp;nbsp; &amp;nbsp; &amp;nbsp; &amp;nbsp; &amp;nbsp; &amp;nbsp; &amp;nbsp; &amp;nbsp; &amp;nbsp; &amp;nbsp; &amp;nbsp; &amp;nbsp; &amp;nbsp; &amp;nbsp; &amp;nbsp; &amp;nbsp;&amp;nbsp;&lt;u&gt;21.57&lt;/u&gt;&lt;/font&gt;" style="connectable=0;recursiveResize=0;align=left;fontStyle=1;html=1;fillColor=#dae8fc;strokeColor=#000000;rowspan=1;colspan=7;fontSize=15;" parent="cB3diPAI-XHsvrUqITlT-10" vertex="1">
          <mxGeometry width="503" height="57" as="geometry">
            <mxRectangle width="99" height="57" as="alternateBounds" />
          </mxGeometry>
        </mxCell>
        <mxCell id="cB3diPAI-XHsvrUqITlT-12" style="connectable=0;recursiveResize=0;align=center;fontStyle=1;html=1;fillColor=#cdeb8b;strokeColor=default;" parent="cB3diPAI-XHsvrUqITlT-10" vertex="1" visible="0">
          <mxGeometry x="99" width="67" height="57" as="geometry">
            <mxRectangle width="67" height="57" as="alternateBounds" />
          </mxGeometry>
        </mxCell>
        <mxCell id="cB3diPAI-XHsvrUqITlT-13" style="connectable=0;recursiveResize=0;align=center;fontStyle=1;html=1;fillColor=#cdeb8b;strokeColor=default;" parent="cB3diPAI-XHsvrUqITlT-10" vertex="1" visible="0">
          <mxGeometry x="166" width="68" height="57" as="geometry">
            <mxRectangle width="68" height="57" as="alternateBounds" />
          </mxGeometry>
        </mxCell>
        <mxCell id="cB3diPAI-XHsvrUqITlT-14" style="connectable=0;recursiveResize=0;align=center;fontStyle=1;html=1;fillColor=#cdeb8b;strokeColor=default;" parent="cB3diPAI-XHsvrUqITlT-10" vertex="1" visible="0">
          <mxGeometry x="234" width="82" height="57" as="geometry">
            <mxRectangle width="82" height="57" as="alternateBounds" />
          </mxGeometry>
        </mxCell>
        <mxCell id="cB3diPAI-XHsvrUqITlT-15" style="connectable=0;recursiveResize=0;align=center;fontStyle=1;html=1;fillColor=#cdeb8b;strokeColor=default;" parent="cB3diPAI-XHsvrUqITlT-10" vertex="1" visible="0">
          <mxGeometry x="316" width="84" height="57" as="geometry">
            <mxRectangle width="84" height="57" as="alternateBounds" />
          </mxGeometry>
        </mxCell>
        <mxCell id="cB3diPAI-XHsvrUqITlT-16" style="connectable=0;recursiveResize=0;align=center;fontStyle=1;html=1;fillColor=#cdeb8b;strokeColor=default;" parent="cB3diPAI-XHsvrUqITlT-10" vertex="1" visible="0">
          <mxGeometry x="400" width="54" height="57" as="geometry">
            <mxRectangle width="54" height="57" as="alternateBounds" />
          </mxGeometry>
        </mxCell>
        <mxCell id="cB3diPAI-XHsvrUqITlT-17" style="connectable=0;recursiveResize=0;align=center;fontStyle=1;html=1;fillColor=#cdeb8b;strokeColor=default;" parent="cB3diPAI-XHsvrUqITlT-10" vertex="1" visible="0">
          <mxGeometry x="454" width="49" height="57" as="geometry">
            <mxRectangle width="49" height="57" as="alternateBounds" />
          </mxGeometry>
        </mxCell>
        <mxCell id="Ha94GGuBTtk3qQymZ2kD-1" value="&lt;font style=&quot;font-size: 20px; font-weight: normal;&quot;&gt;17/08/2025&lt;/font&gt;" style="text;html=1;align=center;verticalAlign=middle;whiteSpace=wrap;rounded=0;fillColor=none;fontStyle=1;fontFamily=Verdana;" vertex="1" parent="1">
          <mxGeometry x="651.5699999999999" y="1106.297" width="19.69" height="12.29" as="geometry" />
        </mxCell>
      </root>
    </mxGraphModel>
  </diagram>
</mxfile>
